# Blender v2.78 (sub 0) OBJ File: 'test_level_simple_omega2097.blend'
# www.blender.org
mtllib test_level_simple_omega2097.mtl
o Plane
v -4.000000 0.000000 4.000000
v 4.000000 0.000000 4.000000
v -4.000000 0.000000 -4.000000
v 4.000000 0.000000 -4.000000
v -4.000000 0.000000 0.000000
v 0.000000 0.000000 4.000000
v 4.000000 0.000000 0.000000
v 0.000000 0.000000 -4.000000
v 0.000000 0.000000 0.000000
v -4.000000 0.000000 1.000000
v -4.000000 0.000000 2.000000
v -4.000000 0.000000 3.000000
v 1.000000 0.000000 4.000000
v 2.000000 0.000000 4.000000
v 3.000000 0.000000 4.000000
v 4.000000 0.000000 -1.000000
v 4.000000 0.000000 -2.000000
v 4.000000 0.000000 -3.000000
v -1.000000 0.000000 -4.000000
v -2.000000 0.000000 -4.000000
v -3.000000 0.000000 -4.000000
v -4.000000 0.000000 -3.000000
v -4.000000 0.000000 -2.000000
v -4.000000 0.000000 -1.000000
v -3.000000 0.000000 4.000000
v -2.000000 0.000000 4.000000
v -1.000000 0.000000 4.000000
v 4.000000 0.000000 3.000000
v 4.000000 0.000000 2.000000
v 4.000000 0.000000 1.000000
v 3.000000 0.000000 -4.000000
v 2.000000 0.000000 -4.000000
v 1.000000 0.000000 -4.000000
v 0.000000 0.000000 -1.000000
v 0.000000 0.000000 -2.000000
v 0.000000 0.000000 -3.000000
v 0.000000 0.000000 3.000000
v 0.000000 0.000000 2.000000
v 0.000000 0.000000 1.000000
v -1.000000 0.000000 0.000000
v -2.000000 0.000000 0.000000
v -3.000000 0.000000 0.000000
v 3.000000 0.000000 0.000000
v 2.000000 0.000000 0.000000
v 1.000000 0.000000 0.000000
v 1.000000 0.000000 3.000000
v 1.000000 0.000000 2.000000
v 1.000000 0.000000 1.000000
v 2.000000 0.000000 3.000000
v 2.000000 0.000000 2.000000
v 2.000000 0.000000 1.000000
v 3.000000 0.000000 3.000000
v 3.000000 0.000000 2.000000
v 3.000000 0.000000 1.000000
v -3.000000 0.000000 3.000000
v -3.000000 0.000000 2.000000
v -3.000000 0.000000 1.000000
v -2.000000 0.000000 3.000000
v -2.000000 0.000000 2.000000
v -2.000000 0.000000 1.000000
v -1.000000 0.000000 3.000000
v -1.000000 0.000000 2.000000
v -1.000000 0.000000 1.000000
v -3.000000 0.000000 -1.000000
v -3.000000 0.000000 -2.000000
v -3.000000 0.000000 -3.000000
v -2.000000 0.000000 -1.000000
v -2.000000 0.000000 -2.000000
v -2.000000 0.000000 -3.000000
v -1.000000 0.000000 -1.000000
v -1.000000 0.000000 -2.000000
v -1.000000 0.000000 -3.000000
v 1.000000 0.000000 -1.000000
v 1.000000 0.000000 -2.000000
v 1.000000 0.000000 -3.000000
v 2.000000 0.000000 -1.000000
v 2.000000 0.000000 -2.000000
v 2.000000 0.000000 -3.000000
v 3.000000 0.000000 -1.000000
v 3.000000 0.000000 -2.000000
v 3.000000 0.000000 -3.000000
v -4.000000 1.000000 4.000000
v 4.000000 1.000000 4.000000
v -4.000000 1.000000 -4.000000
v 4.000000 1.000000 -4.000000
v -4.000000 1.000000 0.000000
v 0.000000 1.000000 4.000000
v 4.000000 1.000000 0.000000
v 0.000000 1.000000 -4.000000
v -4.000000 1.000000 1.000000
v -4.000000 1.000000 2.000000
v -4.000000 1.000000 3.000000
v 1.000000 1.000000 4.000000
v 2.000000 1.000000 4.000000
v 3.000000 1.000000 4.000000
v 4.000000 1.000000 -1.000000
v 4.000000 1.000000 -2.000000
v 4.000000 1.000000 -3.000000
v -1.000000 1.000000 -4.000000
v -2.000000 1.000000 -4.000000
v -3.000000 1.000000 -4.000000
v -4.000000 1.000000 -3.000000
v -4.000000 1.000000 -2.000000
v -4.000000 1.000000 -1.000000
v -3.000000 1.000000 4.000000
v -2.000000 1.000000 4.000000
v -1.000000 1.000000 4.000000
v 4.000000 1.000000 3.000000
v 4.000000 1.000000 2.000000
v 4.000000 1.000000 1.000000
v 3.000000 1.000000 -4.000000
v 2.000000 1.000000 -4.000000
v 1.000000 1.000000 -4.000000
v -2.000000 1.000000 0.000000
v -3.000000 1.000000 0.000000
v -3.000000 1.000000 1.000000
v -3.000000 1.000000 2.000000
v -2.000000 1.000000 1.000000
v -2.000000 1.000000 2.000000
v -3.000000 1.000000 -1.000000
v -3.000000 1.000000 -2.000000
v -2.000000 1.000000 -1.000000
v -2.000000 1.000000 -2.000000
v 0.000000 1.000000 -2.000000
v 0.000000 1.000000 -3.000000
v -1.000000 1.000000 -2.000000
v -1.000000 1.000000 -3.000000
v 1.000000 1.000000 -2.000000
v 1.000000 1.000000 -3.000000
v 2.000000 1.000000 -2.000000
v 2.000000 1.000000 -3.000000
v 0.000000 1.000000 3.000000
v 0.000000 1.000000 2.000000
v 3.000000 1.000000 0.000000
v 2.000000 1.000000 0.000000
v 1.000000 1.000000 3.000000
v 1.000000 1.000000 2.000000
v 2.000000 1.000000 1.000000
v 2.000000 1.000000 3.000000
v 2.000000 1.000000 2.000000
v 3.000000 1.000000 1.000000
v 3.000000 1.000000 3.000000
v 3.000000 1.000000 2.000000
vn 0.0000 1.0000 0.0000
vn 1.0000 0.0000 0.0000
vn 0.0000 0.0000 -1.0000
vn -1.0000 0.0000 0.0000
vn 0.0000 0.0000 1.0000
usemtl None
s off
f 18//1 31//1 81//1
f 36//1 19//1 72//1
f 39//1 40//1 63//1
f 30//1 43//1 54//1
f 48//1 9//1 39//1
f 51//1 45//1 48//1
f 53//2 142//2 52//2
f 13//1 37//1 6//1
f 38//3 137//3 47//3
f 47//1 39//1 38//1
f 14//1 46//1 13//1
f 47//3 140//3 50//3
f 50//1 48//1 47//1
f 15//1 49//1 14//1
f 37//4 133//4 38//4
f 46//5 132//5 37//5
f 2//1 52//1 15//1
f 28//1 53//1 52//1
f 29//1 54//1 53//1
f 57//1 5//1 10//1
f 65//3 123//3 68//3
f 63//1 41//1 60//1
f 25//1 12//1 1//1
f 55//1 11//1 12//1
f 56//1 10//1 11//1
f 26//1 55//1 25//1
f 58//1 56//1 55//1
f 59//5 117//5 56//5
f 27//1 58//1 26//1
f 61//1 59//1 58//1
f 62//1 60//1 59//1
f 6//1 61//1 27//1
f 37//1 62//1 61//1
f 38//1 63//1 62//1
f 66//1 3//1 22//1
f 69//1 21//1 66//1
f 72//1 20//1 69//1
f 42//1 24//1 5//1
f 64//1 23//1 24//1
f 65//1 22//1 23//1
f 64//4 121//4 65//4
f 67//2 114//2 41//2
f 68//1 66//1 65//1
f 40//1 67//1 41//1
f 70//1 68//1 67//1
f 71//1 69//1 68//1
f 9//1 70//1 40//1
f 34//1 71//1 70//1
f 35//5 126//5 71//5
f 75//1 8//1 36//1
f 78//1 33//1 75//1
f 81//1 32//1 78//1
f 45//1 34//1 9//1
f 73//1 35//1 34//1
f 71//4 127//4 72//4
f 44//1 73//1 45//1
f 76//1 74//1 73//1
f 74//5 124//5 35//5
f 43//1 76//1 44//1
f 79//1 77//1 76//1
f 80//1 78//1 77//1
f 7//1 79//1 43//1
f 16//1 80//1 79//1
f 17//1 81//1 80//1
f 20//5 101//5 21//5
f 3//2 102//2 22//2
f 22//2 103//2 23//2
f 5//2 90//2 10//2
f 23//2 104//2 24//2
f 10//2 91//2 11//2
f 12//2 82//2 1//2
f 1//3 105//3 25//3
f 11//2 92//2 12//2
f 15//3 83//3 2//3
f 25//3 106//3 26//3
f 6//3 93//3 13//3
f 18//4 85//4 4//4
f 26//3 107//3 27//3
f 13//3 94//3 14//3
f 21//5 84//5 3//5
f 2//4 108//4 28//4
f 14//3 95//3 15//3
f 24//2 86//2 5//2
f 28//4 109//4 29//4
f 7//4 96//4 16//4
f 27//3 87//3 6//3
f 29//4 110//4 30//4
f 16//4 97//4 17//4
f 30//4 88//4 7//4
f 4//5 111//5 31//5
f 17//4 98//4 18//4
f 33//5 89//5 8//5
f 31//5 112//5 32//5
f 8//5 99//5 19//5
f 32//5 113//5 33//5
f 19//5 100//5 20//5
f 118//1 115//1 116//1
f 119//1 116//1 117//1
f 114//1 120//1 115//1
f 122//1 121//1 120//1
f 68//2 122//2 67//2
f 56//4 116//4 57//4
f 57//4 115//4 42//4
f 60//2 119//2 59//2
f 41//2 118//2 60//2
f 42//4 120//4 64//4
f 124//1 127//1 126//1
f 128//1 125//1 124//1
f 130//1 129//1 128//1
f 78//2 130//2 77//2
f 77//5 128//5 74//5
f 36//3 129//3 75//3
f 72//3 125//3 36//3
f 75//3 131//3 78//3
f 141//1 135//1 138//1
f 136//1 133//1 132//1
f 139//1 137//1 136//1
f 142//1 140//1 139//1
f 143//1 138//1 140//1
f 50//4 138//4 51//4
f 51//4 135//4 44//4
f 54//2 143//2 53//2
f 52//5 139//5 49//5
f 43//2 141//2 54//2
f 49//5 136//5 46//5
f 44//3 134//3 43//3
f 18//1 4//1 31//1
f 36//1 8//1 19//1
f 39//1 9//1 40//1
f 30//1 7//1 43//1
f 48//1 45//1 9//1
f 51//1 44//1 45//1
f 53//2 143//2 142//2
f 13//1 46//1 37//1
f 38//3 133//3 137//3
f 47//1 48//1 39//1
f 14//1 49//1 46//1
f 47//3 137//3 140//3
f 50//1 51//1 48//1
f 15//1 52//1 49//1
f 37//4 132//4 133//4
f 46//5 136//5 132//5
f 2//1 28//1 52//1
f 28//1 29//1 53//1
f 29//1 30//1 54//1
f 57//1 42//1 5//1
f 65//3 121//3 123//3
f 63//1 40//1 41//1
f 25//1 55//1 12//1
f 55//1 56//1 11//1
f 56//1 57//1 10//1
f 26//1 58//1 55//1
f 58//1 59//1 56//1
f 59//5 119//5 117//5
f 27//1 61//1 58//1
f 61//1 62//1 59//1
f 62//1 63//1 60//1
f 6//1 37//1 61//1
f 37//1 38//1 62//1
f 38//1 39//1 63//1
f 66//1 21//1 3//1
f 69//1 20//1 21//1
f 72//1 19//1 20//1
f 42//1 64//1 24//1
f 64//1 65//1 23//1
f 65//1 66//1 22//1
f 64//4 120//4 121//4
f 67//2 122//2 114//2
f 68//1 69//1 66//1
f 40//1 70//1 67//1
f 70//1 71//1 68//1
f 71//1 72//1 69//1
f 9//1 34//1 70//1
f 34//1 35//1 71//1
f 35//5 124//5 126//5
f 75//1 33//1 8//1
f 78//1 32//1 33//1
f 81//1 31//1 32//1
f 45//1 73//1 34//1
f 73//1 74//1 35//1
f 71//4 126//4 127//4
f 44//1 76//1 73//1
f 76//1 77//1 74//1
f 74//5 128//5 124//5
f 43//1 79//1 76//1
f 79//1 80//1 77//1
f 80//1 81//1 78//1
f 7//1 16//1 79//1
f 16//1 17//1 80//1
f 17//1 18//1 81//1
f 20//5 100//5 101//5
f 3//2 84//2 102//2
f 22//2 102//2 103//2
f 5//2 86//2 90//2
f 23//2 103//2 104//2
f 10//2 90//2 91//2
f 12//2 92//2 82//2
f 1//3 82//3 105//3
f 11//2 91//2 92//2
f 15//3 95//3 83//3
f 25//3 105//3 106//3
f 6//3 87//3 93//3
f 18//4 98//4 85//4
f 26//3 106//3 107//3
f 13//3 93//3 94//3
f 21//5 101//5 84//5
f 2//4 83//4 108//4
f 14//3 94//3 95//3
f 24//2 104//2 86//2
f 28//4 108//4 109//4
f 7//4 88//4 96//4
f 27//3 107//3 87//3
f 29//4 109//4 110//4
f 16//4 96//4 97//4
f 30//4 110//4 88//4
f 4//5 85//5 111//5
f 17//4 97//4 98//4
f 33//5 113//5 89//5
f 31//5 111//5 112//5
f 8//5 89//5 99//5
f 32//5 112//5 113//5
f 19//5 99//5 100//5
f 118//1 114//1 115//1
f 119//1 118//1 116//1
f 114//1 122//1 120//1
f 122//1 123//1 121//1
f 68//2 123//2 122//2
f 56//4 117//4 116//4
f 57//4 116//4 115//4
f 60//2 118//2 119//2
f 41//2 114//2 118//2
f 42//4 115//4 120//4
f 124//1 125//1 127//1
f 128//1 129//1 125//1
f 130//1 131//1 129//1
f 78//2 131//2 130//2
f 77//5 130//5 128//5
f 36//3 125//3 129//3
f 72//3 127//3 125//3
f 75//3 129//3 131//3
f 141//1 134//1 135//1
f 136//1 137//1 133//1
f 139//1 140//1 137//1
f 142//1 143//1 140//1
f 143//1 141//1 138//1
f 50//4 140//4 138//4
f 51//4 138//4 135//4
f 54//2 141//2 143//2
f 52//5 142//5 139//5
f 43//2 134//2 141//2
f 49//5 139//5 136//5
f 44//3 135//3 134//3
